<svg width="24" height="24" viewBox="0 0 24 24" fill="none" xmlns="http://www.w3.org/2000/svg">
<path d="M20.75 0C21.1642 0 21.5 0.335786 21.5 0.75V2L22.75 2C23.1642 2 23.5 2.33579 23.5 2.75C23.5 3.16421 23.1642 3.5 22.75 3.5H21.5V4.75C21.5 5.16421 21.1642 5.5 20.75 5.5C20.3358 5.5 20 5.16421 20 4.75V3.5H18.75C18.3358 3.5 18 3.16421 18 2.75C18 2.33579 18.3358 2 18.75 2L20 2V0.75C20 0.335786 20.3358 0 20.75 0ZM7.50001 3.25C7.50001 2.83579 7.16423 2.5 6.75001 2.5C6.3358 2.5 6.00001 2.83579 6.00001 3.25V4.5H4.75002C4.3358 4.5 4.00002 4.83579 4.00002 5.25C4.00002 5.66421 4.3358 6 4.75002 6H6.00001V7.25C6.00001 7.66421 6.3358 8 6.75001 8C7.16423 8 7.50001 7.66421 7.50001 7.25V6H8.75001C9.16423 6 9.50002 5.66421 9.50002 5.25C9.50002 4.83579 9.16423 4.5 8.75001 4.5H7.50001V3.25ZM19.5 14.75C19.5 14.3358 19.1642 14 18.75 14C18.3358 14 18 14.3358 18 14.75V16H16.75C16.3358 16 16 16.3358 16 16.75C16 17.1642 16.3358 17.5 16.75 17.5H18V18.75C18 19.1642 18.3358 19.5 18.75 19.5C19.1642 19.5 19.5 19.1642 19.5 18.75V17.5H20.75C21.1642 17.5 21.5 17.1642 21.5 16.75C21.5 16.3358 21.1642 16 20.75 16H19.5V14.75ZM18.634 6.47777C17.7057 4.81278 15.4435 4.49589 14.0933 5.8417L1.80729 18.0883C0.683452 19.2086 0.677425 21.0268 1.7938 22.1544C2.91606 23.288 4.74594 23.2936 5.87502 22.1668L18.1539 9.91288C19.0644 9.00421 19.2605 7.60129 18.634 6.47777ZM15.1523 6.90406C15.798 6.26041 16.8799 6.41197 17.3239 7.20827C17.6235 7.7456 17.5297 8.41656 17.0943 8.85115L16.2521 9.69157L14.3071 7.74653L15.1523 6.90406ZM13.2447 8.80549L15.1904 10.7512L4.81544 21.105C4.2744 21.645 3.39755 21.6423 2.85978 21.0991C2.32483 20.5588 2.32772 19.6875 2.86624 19.1507L13.2447 8.80549Z" fill="#171717"/>
</svg>
